<svg width="454" height="180" viewBox="0 0 454 180" fill="none" xmlns="http://www.w3.org/2000/svg">
<rect x="6" y="28" width="442" height="116" stroke="#EECD20" stroke-width="10"/>
<path d="M108.031 64.3125V109H120.438V64.3125H108.031ZM149 86.6562C149 80.4896 146.812 75.2292 142.438 70.875C138.083 66.5 132.823 64.3125 126.656 64.3125H121.688V76.7188H126.656C129.385 76.7188 131.719 77.6875 133.656 79.625C135.615 81.5833 136.594 83.9271 136.594 86.6562C136.594 89.3854 135.615 91.7292 133.656 93.6875C131.719 95.625 129.385 96.5938 126.656 96.5938H121.688V109H126.656C132.823 109 138.083 106.812 142.438 102.438C146.812 98.0833 149 92.8229 149 86.6562ZM152.781 64.3125V109H165.188V64.3125H152.781ZM193.75 86.6562C193.75 80.4896 191.562 75.2292 187.188 70.875C182.833 66.5 177.573 64.3125 171.406 64.3125H166.438V76.7188H171.406C174.135 76.7188 176.469 77.6875 178.406 79.625C180.365 81.5833 181.344 83.9271 181.344 86.6562C181.344 89.3854 180.365 91.7292 178.406 93.6875C176.469 95.625 174.135 96.5938 171.406 96.5938H166.438V109H171.406C177.573 109 182.833 106.812 187.188 102.438C191.562 98.0833 193.75 92.8229 193.75 86.6562ZM197.531 64.3125V109H209.938V64.3125H197.531ZM236 109L227.938 95.4062C230.396 93.9062 232.344 91.9062 233.781 89.4062C235.26 86.8229 236 84.0417 236 81.0625C236 76.4375 234.365 72.4896 231.094 69.2188C227.823 65.9479 223.875 64.3125 219.25 64.3125H211.188V76.7188H219.25C220.458 76.7188 221.479 77.1458 222.312 78C223.167 78.8542 223.594 79.875 223.594 81.0625C223.594 82.2708 223.167 83.2917 222.312 84.125C221.479 84.9792 220.458 85.4062 219.25 85.4062H211.188V97.8125H214.969L221.594 109H236ZM239.781 109H252.188V64.3125H239.781V109ZM255.969 64.3125L272.969 109H286.281L280.156 92.9688L280.125 92.9062L270.75 68.4688L270.812 68.4375L269.25 64.3125H255.969ZM291.344 64.3125L280.812 91.25L287.406 108.5L304.688 64.3125H291.344ZM308.469 64.3125V109H320.875V64.3125H308.469ZM338.688 81.6875H322.125V91.625H338.688V81.6875ZM322.125 109H346.938V96.5938H322.125V109ZM322.125 76.7188H346.938V64.3125H322.125V76.7188Z" fill="#EECD20"/>
<path d="M4.05762 177H9.34521V179H1.56738V166.914H4.05762V177ZM13.4292 179H10.939V166.914H13.4292V179ZM25.3076 177.473C24.8594 178.009 24.2257 178.427 23.4067 178.726C22.5877 179.019 21.6802 179.166 20.6841 179.166C19.6382 179.166 18.7196 178.939 17.9282 178.485C17.1424 178.026 16.5337 177.362 16.1021 176.493C15.6759 175.624 15.4574 174.603 15.4463 173.43V172.608C15.4463 171.402 15.6483 170.359 16.0522 169.479C16.4618 168.594 17.0483 167.918 17.812 167.454C18.5812 166.983 19.4805 166.748 20.5098 166.748C21.943 166.748 23.0636 167.091 23.8716 167.777C24.6795 168.458 25.1582 169.451 25.3076 170.757H22.8838C22.7731 170.066 22.5269 169.559 22.145 169.238C21.7687 168.917 21.2485 168.757 20.5845 168.757C19.7378 168.757 19.0931 169.075 18.6504 169.711C18.2077 170.348 17.9836 171.294 17.978 172.55V173.322C17.978 174.59 18.2188 175.547 18.7002 176.194C19.1816 176.842 19.8872 177.166 20.8169 177.166C21.7521 177.166 22.4189 176.966 22.8174 176.568V174.484H20.5513V172.65H25.3076V177.473ZM37.1694 179H34.6792V173.82H29.8232V179H27.333V166.914H29.8232V171.812H34.6792V166.914H37.1694V179ZM48.2012 168.931H44.499V179H42.0088V168.931H38.3564V166.914H48.2012V168.931ZM62.7773 175.514L64.4043 166.914H66.8862L64.2051 179H61.6982L59.731 170.915L57.7637 179H55.2568L52.5757 166.914H55.0576L56.6929 175.497L58.6851 166.914H60.7935L62.7773 175.514ZM75.5107 173.762H70.7295V177H76.3408V179H68.2393V166.914H76.3242V168.931H70.7295V171.812H75.5107V173.762ZM80.4497 179H77.9595V166.914H80.4497V179ZM92.3281 177.473C91.8799 178.009 91.2463 178.427 90.4272 178.726C89.6082 179.019 88.7007 179.166 87.7046 179.166C86.6587 179.166 85.7401 178.939 84.9487 178.485C84.1629 178.026 83.5542 177.362 83.1226 176.493C82.6965 175.624 82.4779 174.603 82.4668 173.43V172.608C82.4668 171.402 82.6688 170.359 83.0728 169.479C83.4823 168.594 84.0688 167.918 84.8325 167.454C85.6017 166.983 86.501 166.748 87.5303 166.748C88.9635 166.748 90.0841 167.091 90.8921 167.777C91.7 168.458 92.1787 169.451 92.3281 170.757H89.9043C89.7936 170.066 89.5474 169.559 89.1655 169.238C88.7892 168.917 88.269 168.757 87.605 168.757C86.7583 168.757 86.1136 169.075 85.6709 169.711C85.2282 170.348 85.0041 171.294 84.9985 172.55V173.322C84.9985 174.59 85.2393 175.547 85.7207 176.194C86.2021 176.842 86.9077 177.166 87.8374 177.166C88.7726 177.166 89.4395 176.966 89.8379 176.568V174.484H87.5718V172.65H92.3281V177.473ZM104.19 179H101.7V173.82H96.8438V179H94.3535V166.914H96.8438V171.812H101.7V166.914H104.19V179ZM115.222 168.931H111.52V179H109.029V168.931H105.377V166.914H115.222V168.931ZM129.873 174.974C129.778 176.275 129.297 177.298 128.428 178.045C127.565 178.792 126.425 179.166 125.008 179.166C123.459 179.166 122.239 178.646 121.348 177.605C120.462 176.56 120.02 175.126 120.02 173.306V172.567C120.02 171.405 120.224 170.381 120.634 169.496C121.043 168.61 121.627 167.932 122.385 167.462C123.149 166.986 124.034 166.748 125.042 166.748C126.436 166.748 127.559 167.122 128.412 167.869C129.264 168.616 129.756 169.664 129.889 171.015H127.399C127.338 170.234 127.119 169.67 126.743 169.321C126.372 168.967 125.805 168.79 125.042 168.79C124.211 168.79 123.589 169.089 123.174 169.687C122.764 170.279 122.554 171.2 122.543 172.451V173.364C122.543 174.67 122.739 175.624 123.132 176.228C123.531 176.831 124.156 177.132 125.008 177.132C125.778 177.132 126.35 176.958 126.727 176.609C127.108 176.255 127.327 175.71 127.382 174.974H129.873ZM133.998 177H139.286V179H131.508V166.914H133.998V177ZM150.118 173.231C150.118 174.421 149.908 175.464 149.487 176.36C149.067 177.257 148.464 177.949 147.678 178.436C146.897 178.923 146.001 179.166 144.988 179.166C143.987 179.166 143.093 178.925 142.307 178.444C141.521 177.962 140.913 177.276 140.481 176.385C140.049 175.489 139.831 174.459 139.825 173.297V172.7C139.825 171.51 140.038 170.464 140.464 169.562C140.896 168.654 141.502 167.96 142.282 167.479C143.068 166.992 143.965 166.748 144.972 166.748C145.979 166.748 146.873 166.992 147.653 167.479C148.439 167.96 149.045 168.654 149.471 169.562C149.902 170.464 150.118 171.507 150.118 172.691V173.231ZM147.595 172.683C147.595 171.416 147.368 170.453 146.914 169.794C146.46 169.136 145.813 168.807 144.972 168.807C144.136 168.807 143.491 169.133 143.038 169.786C142.584 170.434 142.354 171.385 142.349 172.642V173.231C142.349 174.465 142.576 175.422 143.029 176.103C143.483 176.784 144.136 177.124 144.988 177.124C145.824 177.124 146.466 176.798 146.914 176.145C147.362 175.486 147.589 174.529 147.595 173.272V172.683ZM161.075 166.914V174.875C161.075 176.197 160.66 177.243 159.83 178.012C159.006 178.781 157.877 179.166 156.443 179.166C155.032 179.166 153.912 178.792 153.082 178.045C152.251 177.298 151.828 176.272 151.812 174.966V166.914H154.302V174.891C154.302 175.682 154.49 176.261 154.866 176.626C155.248 176.986 155.774 177.166 156.443 177.166C157.843 177.166 158.555 176.43 158.577 174.958V166.914H161.075ZM163.117 179V166.914H166.836C167.898 166.914 168.847 167.155 169.683 167.636C170.524 168.112 171.18 168.793 171.65 169.678C172.121 170.558 172.356 171.56 172.356 172.683V173.239C172.356 174.363 172.124 175.361 171.659 176.236C171.199 177.11 170.549 177.788 169.708 178.27C168.867 178.751 167.918 178.994 166.861 179H163.117ZM165.607 168.931V177H166.811C167.785 177 168.529 176.681 169.044 176.045C169.559 175.409 169.821 174.498 169.833 173.314V172.675C169.833 171.446 169.578 170.517 169.069 169.886C168.56 169.249 167.815 168.931 166.836 168.931H165.607ZM184.674 175.829C184.674 175.359 184.508 174.999 184.176 174.75C183.844 174.495 183.247 174.23 182.383 173.953C181.52 173.671 180.837 173.394 180.333 173.123C178.961 172.382 178.274 171.383 178.274 170.126C178.274 169.473 178.457 168.892 178.822 168.383C179.193 167.869 179.722 167.467 180.408 167.18C181.099 166.892 181.874 166.748 182.732 166.748C183.595 166.748 184.364 166.906 185.04 167.221C185.715 167.531 186.238 167.971 186.608 168.541C186.985 169.111 187.173 169.758 187.173 170.483H184.683C184.683 169.93 184.508 169.501 184.16 169.197C183.811 168.887 183.321 168.732 182.69 168.732C182.082 168.732 181.609 168.862 181.271 169.122C180.933 169.377 180.765 169.714 180.765 170.135C180.765 170.528 180.961 170.857 181.354 171.123C181.752 171.388 182.336 171.637 183.105 171.87C184.522 172.296 185.554 172.824 186.202 173.455C186.849 174.086 187.173 174.872 187.173 175.812C187.173 176.858 186.777 177.68 185.986 178.278C185.194 178.87 184.129 179.166 182.79 179.166C181.86 179.166 181.014 178.997 180.25 178.66C179.486 178.317 178.903 177.849 178.499 177.257C178.1 176.665 177.901 175.979 177.901 175.198H180.399C180.399 176.532 181.196 177.199 182.79 177.199C183.382 177.199 183.844 177.08 184.176 176.842C184.508 176.598 184.674 176.261 184.674 175.829ZM197.964 168.931H194.262V179H191.771V168.931H188.119V166.914H197.964V168.931ZM209.087 173.231C209.087 174.421 208.877 175.464 208.456 176.36C208.035 177.257 207.432 177.949 206.646 178.436C205.866 178.923 204.97 179.166 203.957 179.166C202.955 179.166 202.062 178.925 201.276 178.444C200.49 177.962 199.881 177.276 199.45 176.385C199.018 175.489 198.799 174.459 198.794 173.297V172.7C198.794 171.51 199.007 170.464 199.433 169.562C199.865 168.654 200.471 167.96 201.251 167.479C202.037 166.992 202.933 166.748 203.94 166.748C204.948 166.748 205.841 166.992 206.622 167.479C207.407 167.96 208.013 168.654 208.439 169.562C208.871 170.464 209.087 171.507 209.087 172.691V173.231ZM206.563 172.683C206.563 171.416 206.337 170.453 205.883 169.794C205.429 169.136 204.782 168.807 203.94 168.807C203.105 168.807 202.46 169.133 202.006 169.786C201.553 170.434 201.323 171.385 201.317 172.642V173.231C201.317 174.465 201.544 175.422 201.998 176.103C202.452 176.784 203.105 177.124 203.957 177.124C204.793 177.124 205.435 176.798 205.883 176.145C206.331 175.486 206.558 174.529 206.563 173.272V172.683ZM215.371 174.576H213.387V179H210.896V166.914H215.387C216.815 166.914 217.916 167.232 218.691 167.869C219.466 168.505 219.853 169.404 219.853 170.566C219.853 171.391 219.673 172.08 219.313 172.633C218.959 173.181 218.42 173.618 217.695 173.945L220.31 178.884V179H217.637L215.371 174.576ZM213.387 172.559H215.396C216.021 172.559 216.505 172.401 216.848 172.085C217.191 171.764 217.363 171.325 217.363 170.766C217.363 170.196 217.2 169.747 216.873 169.421C216.552 169.094 216.057 168.931 215.387 168.931H213.387V172.559ZM228.577 176.51H224.211L223.381 179H220.733L225.232 166.914H227.54L232.063 179H229.416L228.577 176.51ZM224.883 174.493H227.905L226.386 169.969L224.883 174.493ZM242.572 177.473C242.124 178.009 241.49 178.427 240.671 178.726C239.852 179.019 238.945 179.166 237.949 179.166C236.903 179.166 235.984 178.939 235.193 178.485C234.407 178.026 233.798 177.362 233.367 176.493C232.941 175.624 232.722 174.603 232.711 173.43V172.608C232.711 171.402 232.913 170.359 233.317 169.479C233.726 168.594 234.313 167.918 235.077 167.454C235.846 166.983 236.745 166.748 237.774 166.748C239.208 166.748 240.328 167.091 241.136 167.777C241.944 168.458 242.423 169.451 242.572 170.757H240.148C240.038 170.066 239.792 169.559 239.41 169.238C239.033 168.917 238.513 168.757 237.849 168.757C237.002 168.757 236.358 169.075 235.915 169.711C235.472 170.348 235.248 171.294 235.243 172.55V173.322C235.243 174.59 235.483 175.547 235.965 176.194C236.446 176.842 237.152 177.166 238.082 177.166C239.017 177.166 239.684 176.966 240.082 176.568V174.484H237.816V172.65H242.572V177.473ZM251.869 173.762H247.088V177H252.699V179H244.598V166.914H252.683V168.931H247.088V171.812H251.869V173.762ZM264.661 175.829C264.661 175.359 264.495 174.999 264.163 174.75C263.831 174.495 263.233 174.23 262.37 173.953C261.506 173.671 260.823 173.394 260.319 173.123C258.947 172.382 258.261 171.383 258.261 170.126C258.261 169.473 258.443 168.892 258.809 168.383C259.179 167.869 259.708 167.467 260.394 167.18C261.086 166.892 261.861 166.748 262.718 166.748C263.582 166.748 264.351 166.906 265.026 167.221C265.701 167.531 266.224 167.971 266.595 168.541C266.971 169.111 267.159 169.758 267.159 170.483H264.669C264.669 169.93 264.495 169.501 264.146 169.197C263.797 168.887 263.308 168.732 262.677 168.732C262.068 168.732 261.595 168.862 261.257 169.122C260.92 169.377 260.751 169.714 260.751 170.135C260.751 170.528 260.947 170.857 261.34 171.123C261.739 171.388 262.323 171.637 263.092 171.87C264.508 172.296 265.541 172.824 266.188 173.455C266.835 174.086 267.159 174.872 267.159 175.812C267.159 176.858 266.764 177.68 265.972 178.278C265.181 178.87 264.116 179.166 262.776 179.166C261.847 179.166 261 178.997 260.236 178.66C259.473 178.317 258.889 177.849 258.485 177.257C258.086 176.665 257.887 175.979 257.887 175.198H260.386C260.386 176.532 261.183 177.199 262.776 177.199C263.368 177.199 263.831 177.08 264.163 176.842C264.495 176.598 264.661 176.261 264.661 175.829ZM273.02 172.359L275.535 166.914H278.257L274.29 174.617V179H271.758V174.617L267.79 166.914H270.521L273.02 172.359ZM285.496 175.829C285.496 175.359 285.33 174.999 284.998 174.75C284.666 174.495 284.068 174.23 283.205 173.953C282.341 173.671 281.658 173.394 281.154 173.123C279.782 172.382 279.096 171.383 279.096 170.126C279.096 169.473 279.278 168.892 279.644 168.383C280.014 167.869 280.543 167.467 281.229 167.18C281.921 166.892 282.695 166.748 283.553 166.748C284.417 166.748 285.186 166.906 285.861 167.221C286.536 167.531 287.059 167.971 287.43 168.541C287.806 169.111 287.994 169.758 287.994 170.483H285.504C285.504 169.93 285.33 169.501 284.981 169.197C284.632 168.887 284.143 168.732 283.512 168.732C282.903 168.732 282.43 168.862 282.092 169.122C281.755 169.377 281.586 169.714 281.586 170.135C281.586 170.528 281.782 170.857 282.175 171.123C282.574 171.388 283.158 171.637 283.927 171.87C285.343 172.296 286.375 172.824 287.023 173.455C287.67 174.086 287.994 174.872 287.994 175.812C287.994 176.858 287.598 177.68 286.807 178.278C286.016 178.87 284.951 179.166 283.611 179.166C282.682 179.166 281.835 178.997 281.071 178.66C280.308 178.317 279.724 177.849 279.32 177.257C278.921 176.665 278.722 175.979 278.722 175.198H281.221C281.221 176.532 282.018 177.199 283.611 177.199C284.203 177.199 284.666 177.08 284.998 176.842C285.33 176.598 285.496 176.261 285.496 175.829ZM298.785 168.931H295.083V179H292.593V168.931H288.94V166.914H298.785V168.931ZM307.484 173.762H302.703V177H308.314V179H300.213V166.914H308.298V168.931H302.703V171.812H307.484V173.762ZM313.029 166.914L316.134 175.68L319.222 166.914H322.492V179H319.994V175.696L320.243 169.994L316.98 179H315.271L312.017 170.002L312.266 175.696V179H309.775V166.914H313.029ZM338.048 166.914V174.875C338.048 176.197 337.633 177.243 336.803 178.012C335.978 178.781 334.849 179.166 333.416 179.166C332.005 179.166 330.884 178.792 330.054 178.045C329.224 177.298 328.801 176.272 328.784 174.966V166.914H331.274V174.891C331.274 175.682 331.463 176.261 331.839 176.626C332.221 176.986 332.746 177.166 333.416 177.166C334.816 177.166 335.527 176.43 335.549 174.958V166.914H338.048ZM346.357 175.829C346.357 175.359 346.191 174.999 345.859 174.75C345.527 174.495 344.929 174.23 344.066 173.953C343.203 173.671 342.519 173.394 342.016 173.123C340.643 172.382 339.957 171.383 339.957 170.126C339.957 169.473 340.14 168.892 340.505 168.383C340.876 167.869 341.404 167.467 342.09 167.18C342.782 166.892 343.557 166.748 344.415 166.748C345.278 166.748 346.047 166.906 346.722 167.221C347.397 167.531 347.92 167.971 348.291 168.541C348.667 169.111 348.855 169.758 348.855 170.483H346.365C346.365 169.93 346.191 169.501 345.842 169.197C345.494 168.887 345.004 168.732 344.373 168.732C343.764 168.732 343.291 168.862 342.954 169.122C342.616 169.377 342.447 169.714 342.447 170.135C342.447 170.528 342.644 170.857 343.037 171.123C343.435 171.388 344.019 171.637 344.788 171.87C346.205 172.296 347.237 172.824 347.884 173.455C348.532 174.086 348.855 174.872 348.855 175.812C348.855 176.858 348.46 177.68 347.668 178.278C346.877 178.87 345.812 179.166 344.473 179.166C343.543 179.166 342.696 178.997 341.933 178.66C341.169 178.317 340.585 177.849 340.181 177.257C339.783 176.665 339.583 175.979 339.583 175.198H342.082C342.082 176.532 342.879 177.199 344.473 177.199C345.065 177.199 345.527 177.08 345.859 176.842C346.191 176.598 346.357 176.261 346.357 175.829ZM353.197 179H350.707V166.914H353.197V179ZM365.341 179H362.851L358.003 171.048V179H355.513V166.914H358.003L362.859 174.883V166.914H365.341V179ZM377.078 177.473C376.63 178.009 375.996 178.427 375.177 178.726C374.358 179.019 373.451 179.166 372.455 179.166C371.409 179.166 370.49 178.939 369.699 178.485C368.913 178.026 368.304 177.362 367.873 176.493C367.446 175.624 367.228 174.603 367.217 173.43V172.608C367.217 171.402 367.419 170.359 367.823 169.479C368.232 168.594 368.819 167.918 369.583 167.454C370.352 166.983 371.251 166.748 372.28 166.748C373.714 166.748 374.834 167.091 375.642 167.777C376.45 168.458 376.929 169.451 377.078 170.757H374.654C374.544 170.066 374.297 169.559 373.916 169.238C373.539 168.917 373.019 168.757 372.355 168.757C371.508 168.757 370.864 169.075 370.421 169.711C369.978 170.348 369.754 171.294 369.749 172.55V173.322C369.749 174.59 369.989 175.547 370.471 176.194C370.952 176.842 371.658 177.166 372.587 177.166C373.523 177.166 374.189 176.966 374.588 176.568V174.484H372.322V172.65H377.078V177.473ZM383.337 179V166.914H387.056C388.118 166.914 389.067 167.155 389.903 167.636C390.744 168.112 391.4 168.793 391.87 169.678C392.34 170.558 392.576 171.56 392.576 172.683V173.239C392.576 174.363 392.343 175.361 391.878 176.236C391.419 177.11 390.769 177.788 389.928 178.27C389.087 178.751 388.138 178.994 387.081 179H383.337ZM385.827 168.931V177H387.031C388.005 177 388.749 176.681 389.264 176.045C389.778 175.409 390.041 174.498 390.052 173.314V172.675C390.052 171.446 389.798 170.517 389.289 169.886C388.779 169.249 388.035 168.931 387.056 168.931H385.827ZM397.042 179H394.551V166.914H397.042V179ZM405.625 175.829C405.625 175.359 405.458 174.999 405.126 174.75C404.794 174.495 404.197 174.23 403.333 173.953C402.47 173.671 401.787 173.394 401.283 173.123C399.911 172.382 399.225 171.383 399.225 170.126C399.225 169.473 399.407 168.892 399.772 168.383C400.143 167.869 400.672 167.467 401.358 167.18C402.05 166.892 402.824 166.748 403.682 166.748C404.545 166.748 405.315 166.906 405.99 167.221C406.665 167.531 407.188 167.971 407.559 168.541C407.935 169.111 408.123 169.758 408.123 170.483H405.633C405.633 169.93 405.458 169.501 405.11 169.197C404.761 168.887 404.271 168.732 403.641 168.732C403.032 168.732 402.559 168.862 402.221 169.122C401.884 169.377 401.715 169.714 401.715 170.135C401.715 170.528 401.911 170.857 402.304 171.123C402.703 171.388 403.286 171.637 404.056 171.87C405.472 172.296 406.504 172.824 407.152 173.455C407.799 174.086 408.123 174.872 408.123 175.812C408.123 176.858 407.727 177.68 406.936 178.278C406.145 178.87 405.079 179.166 403.74 179.166C402.811 179.166 401.964 178.997 401.2 178.66C400.437 178.317 399.853 177.849 399.449 177.257C399.05 176.665 398.851 175.979 398.851 175.198H401.35C401.35 176.532 402.146 177.199 403.74 177.199C404.332 177.199 404.794 177.08 405.126 176.842C405.458 176.598 405.625 176.261 405.625 175.829ZM419.304 174.974C419.21 176.275 418.729 177.298 417.86 178.045C416.997 178.792 415.857 179.166 414.44 179.166C412.89 179.166 411.67 178.646 410.779 177.605C409.894 176.56 409.451 175.126 409.451 173.306V172.567C409.451 171.405 409.656 170.381 410.065 169.496C410.475 168.61 411.059 167.932 411.817 167.462C412.581 166.986 413.466 166.748 414.473 166.748C415.868 166.748 416.991 167.122 417.843 167.869C418.695 168.616 419.188 169.664 419.321 171.015H416.831C416.77 170.234 416.551 169.67 416.175 169.321C415.804 168.967 415.237 168.79 414.473 168.79C413.643 168.79 413.021 169.089 412.605 169.687C412.196 170.279 411.986 171.2 411.975 172.451V173.364C411.975 174.67 412.171 175.624 412.564 176.228C412.962 176.831 413.588 177.132 414.44 177.132C415.209 177.132 415.782 176.958 416.158 176.609C416.54 176.255 416.759 175.71 416.814 174.974H419.304ZM430.867 173.231C430.867 174.421 430.657 175.464 430.236 176.36C429.816 177.257 429.213 177.949 428.427 178.436C427.646 178.923 426.75 179.166 425.737 179.166C424.736 179.166 423.842 178.925 423.056 178.444C422.27 177.962 421.662 177.276 421.23 176.385C420.798 175.489 420.58 174.459 420.574 173.297V172.7C420.574 171.51 420.787 170.464 421.213 169.562C421.645 168.654 422.251 167.96 423.031 167.479C423.817 166.992 424.714 166.748 425.721 166.748C426.728 166.748 427.622 166.992 428.402 167.479C429.188 167.96 429.794 168.654 430.22 169.562C430.651 170.464 430.867 171.507 430.867 172.691V173.231ZM428.344 172.683C428.344 171.416 428.117 170.453 427.663 169.794C427.209 169.136 426.562 168.807 425.721 168.807C424.885 168.807 424.24 169.133 423.787 169.786C423.333 170.434 423.103 171.385 423.098 172.642V173.231C423.098 174.465 423.325 175.422 423.778 176.103C424.232 176.784 424.885 177.124 425.737 177.124C426.573 177.124 427.215 176.798 427.663 176.145C428.111 175.486 428.338 174.529 428.344 173.272V172.683ZM437.151 174.576H435.167V179H432.677V166.914H437.167C438.595 166.914 439.696 167.232 440.471 167.869C441.246 168.505 441.633 169.404 441.633 170.566C441.633 171.391 441.453 172.08 441.094 172.633C440.74 173.181 440.2 173.618 439.475 173.945L442.09 178.884V179H439.417L437.151 174.576ZM435.167 172.559H437.176C437.801 172.559 438.285 172.401 438.628 172.085C438.972 171.764 439.143 171.325 439.143 170.766C439.143 170.196 438.98 169.747 438.653 169.421C438.332 169.094 437.837 168.931 437.167 168.931H435.167V172.559ZM443.534 179V166.914H447.253C448.315 166.914 449.264 167.155 450.1 167.636C450.941 168.112 451.597 168.793 452.067 169.678C452.538 170.558 452.773 171.56 452.773 172.683V173.239C452.773 174.363 452.541 175.361 452.076 176.236C451.616 177.11 450.966 177.788 450.125 178.27C449.284 178.751 448.335 178.994 447.278 179H443.534ZM446.024 168.931V177H447.228C448.202 177 448.946 176.681 449.461 176.045C449.976 175.409 450.238 174.498 450.25 173.314V172.675C450.25 171.446 449.995 170.517 449.486 169.886C448.977 169.249 448.232 168.931 447.253 168.931H446.024Z" fill="#EECD20"/>
</svg>
